<svg xmlns="http://www.w3.org/2000/svg" viewBox="0 0 190.08 190.09"><defs><style>.cls-1{fill:#333;}</style></defs><title>FarbodJahan-Icon</title><g id="Icon"><polygon class="cls-1" points="127.45 32.41 127.45 47.81 174.68 95.05 95.04 174.69 74.12 153.76 74.12 169.17 95.04 190.09 190.09 95.05 127.45 32.41"/><polygon class="cls-1" points="95.04 15.4 95.05 15.41 102.03 8.42 102.03 6.99 95.04 0 0 95.05 48.7 143.75 48.7 128.35 15.4 95.05 95.04 15.4"/><polygon class="cls-1" points="82.31 98.72 82.31 83.31 66.86 98.76 66.86 82.72 91.19 58.38 91.19 42.97 55.96 78.2 55.96 151.01 66.86 161.91 66.86 114.17 82.31 98.72"/><polygon class="cls-1" points="120.19 25.14 120.19 125.83 95.04 150.97 82.31 138.23 82.31 122.84 95.04 135.56 109.29 121.31 109.29 14.25 120.19 25.14"/></g></svg>