<svg id="Icon" xmlns="http://www.w3.org/2000/svg" viewBox="0 0 424.26 424.26"><defs><style>.cls-1{fill:#fff;}</style></defs><title>FarbodJahan-White</title><path class="cls-1" d="M712.13,712.13H287.87V287.87H712.13ZM303.72,696.28H696.28V303.72H303.72Z" transform="translate(-287.87 -287.87)"/><rect class="cls-1" x="99.28" y="233.07" width="15.85" height="133.62"/><path class="cls-1" d="M662.49,662.49H467.12v-110h65.63V597H597V353.36H528.07V337.51H662.49ZM483,646.64H646.64V353.36H612.85V612.85h-96V568.38H483Z" transform="translate(-287.87 -287.87)"/><path class="cls-1" d="M447,662.49H337.51V508.65H447.94V474.87H337.51V337.51H507.93V403H403v56h60.79v65.49H353.36V646.64H447ZM353.36,459h33.79V387.15H492.07V353.36H353.36Z" transform="translate(-287.87 -287.87)"/></svg>