<svg id="Icon" xmlns="http://www.w3.org/2000/svg" viewBox="0 0 475.76 475.79"><defs><style>.cls-1{fill:#fff;}</style></defs><title>FarbodJahan-White</title><polygon class="cls-1" points="318.99 81.11 318.99 119.67 437.21 237.91 237.88 437.23 185.51 384.86 185.51 423.42 237.88 475.79 475.76 237.91 318.99 81.11"/><polygon class="cls-1" points="237.88 38.56 237.91 38.58 255.38 21.09 255.38 17.5 237.88 0 0 237.91 121.89 359.8 121.89 321.24 38.56 237.91 237.88 38.56"/><polygon class="cls-1" points="206.01 247.08 206.01 208.53 167.34 247.2 167.34 207.03 228.25 146.12 228.25 107.56 140.07 195.74 140.07 377.98 167.34 405.24 167.34 285.75 206.01 247.08"/><polygon class="cls-1" points="300.82 62.94 300.82 314.93 237.88 377.86 206.01 345.99 206.01 307.45 237.88 339.31 273.55 303.63 273.55 35.67 300.82 62.94"/></svg>