<?xml version="1.0" encoding="utf-8"?>
<!-- Generator: Adobe Illustrator 20.0.0, SVG Export Plug-In . SVG Version: 6.00 Build 0)  -->
<svg version="1.1" id="Icon" xmlns="http://www.w3.org/2000/svg" xmlns:xlink="http://www.w3.org/1999/xlink" x="0px" y="0px"
	 viewBox="0 0 1000 1000" style="enable-background:new 0 0 1000 1000;" xml:space="preserve">
<g>
	<polygon points="581.1,343.2 581.1,381.8 699.3,500 500,699.3 447.6,647 447.6,685.5 500,737.9 737.9,500 	"/>
	<polygon points="500,300.7 500,300.7 517.5,283.2 517.5,279.6 500,262.1 262.1,500 384,621.9 384,583.3 300.7,500 	"/>
	<polygon points="468.1,509.2 468.1,470.6 429.5,509.3 429.5,469.1 490.4,408.2 490.4,369.7 402.2,457.8 402.2,640.1 429.5,667.3 
		429.5,547.9 	"/>
	<polygon points="562.9,325 562.9,577 500,640 468.1,608.1 468.1,569.6 500,601.4 535.7,565.7 535.7,297.8 	"/>
</g>
</svg>
