<svg xmlns="http://www.w3.org/2000/svg" viewBox="0 0 79.99 181.03"><defs><style>.cls-1{fill:#fff;}</style></defs><title>FarbodJahan-Icon-White</title><g id="Icon"><path class="cls-1" d="M482.11,463l-7.69,7.54-2.68,2.62.09.09-4.14,4.06V400.4a32.31,32.31,0,0,1,55.16-22.84,33.7,33.7,0,0,1,2.95,3.39L521,385.77a26.88,26.88,0,0,0-2.9-3.45,25.58,25.58,0,0,0-43.66,18.09v22.89h25L492.15,430H474.42v30.25l7.69-7.54v-15h13.05l23.92-22.1h-37V400.4A17.88,17.88,0,0,1,511,386.29c.11.08.21.15.32.25s0,0,0,0l.67.58a32.46,32.46,0,0,1,7.84,10.63L535.63,382l-1.6-2.59a40.22,40.22,0,0,0-5.76-7.27A40,40,0,0,0,460,400.4v95.19l57.89-56.73,7.69-7.54,2.68-2.62-.09-.09,4.14-4.07v76.89a32.3,32.3,0,0,1-55.16,22.84,31.78,31.78,0,0,1-3.18-3.71l4.82-4.84a24.59,24.59,0,0,0,3.12,3.79,25.58,25.58,0,0,0,43.66-18.09V443.39l-7.69,7.54v50.52A17.87,17.87,0,0,1,500,519.33h-.75a4,4,0,0,1-.53,0,14.27,14.27,0,0,1-1.9-.23l-.5-.09-1.19-.29-.49-.15c-.38-.12-.74-.23-1.1-.39a3.3,3.3,0,0,1-.53-.21l-.5-.22a4,4,0,0,1-.5-.25,4.83,4.83,0,0,1-.49-.25c-.33-.18-.65-.35-1-.55-7.16-4.32-10.65-12.38-10.8-12.74h0l-15.58,15.59,1.56,2.57A40,40,0,0,0,540,501.44V406.26Z" transform="translate(-460 -360.41)"/></g></svg>