<svg id="Logo" xmlns="http://www.w3.org/2000/svg" viewBox="0 0 640.48 73.65"><defs><style>.cls-1{fill:#fff;}</style></defs><title>FarbodJahan-White</title><path class="cls-1" d="M194.15,472.69h38.9v-9.52h-39a14.36,14.36,0,0,0-14.31,14.39v38.9h9.44V492h34.33v-9.52H189.28v-4.95A4.9,4.9,0,0,1,194.15,472.69Z" transform="translate(-179.76 -463.18)"/><path class="cls-1" d="M320.12,491.89a13.72,13.72,0,0,0,4.12-1.15,14.43,14.43,0,0,0,8.36-13.08,14.28,14.28,0,0,0-14.31-14.31H284.65v53.13h9.52V492.11h9.5a9.48,9.48,0,0,1,8.09,4.56l.23.45,5.1,10,4.86,9.52h10.67l-4.86-9.52Zm-26-9.23v-9.82h24.13a4.71,4.71,0,0,1,3.42,1.38,4.94,4.94,0,0,1,1.45,3.51,4.84,4.84,0,0,1-2.88,4.41,4.58,4.58,0,0,1-2,.45Z" transform="translate(-179.76 -463.18)"/><path class="cls-1" d="M386,485.33a14.14,14.14,0,0,0,2.28-7.76,14.43,14.43,0,0,0-14.39-14.39H340.29v53.29H376.6A17,17,0,0,0,386,485.33Zm-36.16-12.63h24.13a4.87,4.87,0,1,1,0,9.74H349.81Zm26.8,34.18v.08h-26.8v-15h26.8a7.46,7.46,0,0,1,0,14.93Z" transform="translate(-179.76 -463.18)"/><path class="cls-1" d="M424.1,463.18a26.64,26.64,0,1,0,26.64,26.64A26.68,26.68,0,0,0,424.1,463.18Zm0,43.77a17.13,17.13,0,1,1,17.13-17.13A17.15,17.15,0,0,1,424.1,506.95Z" transform="translate(-179.76 -463.18)"/><path class="cls-1" d="M483.08,463.25l.08-.08H456.51v53.29h26.64a26.17,26.17,0,0,0,18.73-7.84c.54-.54,1.06-1.06,1.53-1.6a26.58,26.58,0,0,0-20.33-43.77Zm0,43.77H466V472.77h17.13a17.13,17.13,0,0,1,0,34.26Z" transform="translate(-179.76 -463.18)"/><path class="cls-1" d="M577.2,463.18v38.9a4.91,4.91,0,0,1-4.88,4.87h-24.5a4.9,4.9,0,0,1-4.87-4.87v-10h-9.52v10a14.36,14.36,0,0,0,14.39,14.31h24.5a14.37,14.37,0,0,0,14.4-14.31v-38.9Z" transform="translate(-179.76 -463.18)"/><path class="cls-1" d="M694,463.19v19.32H659.69V463.19h-9.52v53.28h9.52V492H694v24.43h9.53V463.19Z" transform="translate(-179.76 -463.18)"/><path class="cls-1" d="M757.52,506.95l-22.31-43.77-22.3,43.77L708,516.47h10.66l4.87-9.52,11.64-22.84,11.64,22.84,4.88,9.52h10.66Z" transform="translate(-179.76 -463.18)"/><path class="cls-1" d="M810.72,463.18v34l-34.26-26.42-9.52-7.31v53.14h9.52V482.82l34.26,26.41,9.52,7.31V463.25Z" transform="translate(-179.76 -463.18)"/><polygon class="cls-1" points="471.42 64.14 460.99 43.78 438.69 0.01 416.39 43.78 411.51 53.29 422.17 53.29 427.05 43.78 438.69 20.93 450.35 43.78 460.78 64.14 464.26 70.95 465.64 73.65 476.28 73.65 640.47 73.65 640.47 64.14 471.42 64.14"/><polygon class="cls-1" points="105.96 64.14 95.52 43.78 73.22 0.01 50.92 43.78 46.05 53.29 56.71 53.29 61.59 43.78 73.22 20.93 84.88 43.78 95.32 64.14 98.8 70.95 100.18 73.65 110.82 73.65 329.97 73.65 329.97 64.14 105.96 64.14"/></svg>