<svg id="Text" xmlns="http://www.w3.org/2000/svg" viewBox="0 0 729.06 130.78"><defs><style>.cls-1{fill:#fff;}</style></defs><title>FarbodJahan</title><path d="M364.62,478.08v7.82h-32a4,4,0,0,0-4,4V494h28.14v7.82H328.6v20.08h-7.75v-32a11.8,11.8,0,0,1,11.76-11.82Z" transform="translate(-135.47 -434.61)"/><path d="M403.41,521.86h-8.76l-4-7.82-9.57-18.76L371.51,514l-4,7.82h-8.76l4-7.82,18.33-36,18.32,36Z" transform="translate(-135.47 -434.61)"/><path d="M442.5,514.1l4,7.82h-8.76l-4-7.82-4.19-8.19-.19-.38a7.75,7.75,0,0,0-6.63-3.75h-7.82v20.14H407.1V478.14h27.64a11.72,11.72,0,0,1,8.32,3.44A12,12,0,0,1,446.5,490a11.86,11.86,0,0,1-6.88,10.76,10.43,10.43,0,0,1-3.38.94ZM434.75,494a3.65,3.65,0,0,0,1.63-.38,4,4,0,0,0,2.38-3.63,4.13,4.13,0,0,0-1.19-2.88,3.94,3.94,0,0,0-2.81-1.13H414.92V494Z" transform="translate(-135.47 -434.61)"/><path d="M496.61,507.91a14,14,0,0,1-13.95,13.95H452.83V478.08h27.58a11.85,11.85,0,0,1,11.82,11.82,11.59,11.59,0,0,1-1.88,6.38A14,14,0,0,1,496.61,507.91Zm-36-14h19.83a4,4,0,1,0,0-8H460.64Zm22,20.08a6.13,6.13,0,1,0,0-12.26h-22V514h22Z" transform="translate(-135.47 -434.61)"/><path d="M543.52,500a21.89,21.89,0,1,1-21.89-21.89A21.91,21.91,0,0,1,543.52,500Zm-7.82,0A14.07,14.07,0,1,0,521.63,514,14.09,14.09,0,0,0,535.7,500Z" transform="translate(-135.47 -434.61)"/><path d="M570,478.14a21.83,21.83,0,0,1,16.7,36c-.38.44-.81.88-1.25,1.31a21.49,21.49,0,0,1-15.39,6.44H548.22V478.08ZM556,514.1H570A14.07,14.07,0,1,0,570,486H556Z" transform="translate(-135.47 -434.61)"/><path d="M672.5,478.08v32a11.8,11.8,0,0,1-11.82,11.76H640.54A11.8,11.8,0,0,1,628.72,510v-8.19h7.82V510a4,4,0,0,0,4,4h20.14a4,4,0,0,0,4-4v-32Z" transform="translate(-135.47 -434.61)"/><path d="M721,521.86h-8.76l-4-7.82-9.57-18.76L689.08,514l-4,7.82h-8.76l4-7.82,18.33-36L717,514Z" transform="translate(-135.47 -434.61)"/><path d="M768.51,478.08v43.78H760.7V501.78H732.55v20.08h-7.82V478.08h7.82V494H760.7V478.08Z" transform="translate(-135.47 -434.61)"/><path d="M817,521.86h-8.76l-4-7.82-9.57-18.76L785.09,514l-4,7.82h-8.76l4-7.82,18.33-36L813,514Z" transform="translate(-135.47 -434.61)"/><path d="M864.53,478.14v43.78l-7.82-6-28.14-21.7v27.71h-7.82V478.27l7.82,6L856.71,506V478.08Z" transform="translate(-135.47 -434.61)"/><rect width="130.78" height="130.78"/><polygon class="cls-1" points="72.78 97.56 58.01 97.56 58.01 87.54 43.24 102.31 43.24 112.33 87.54 112.33 87.54 77.53 72.78 77.53 72.78 97.56"/><polygon class="cls-1" points="43.24 18.45 43.24 77.53 43.24 92.29 58.01 77.53 58.01 33.22 87.54 33.22 87.54 18.45 43.24 18.45"/><rect class="cls-1" x="72.77" y="47.99" width="14.77" height="14.77"/></svg>