<?xml version="1.0" encoding="utf-8"?>
<!-- Generator: Adobe Illustrator 20.0.0, SVG Export Plug-In . SVG Version: 6.00 Build 0)  -->
<svg version="1.1" xmlns="http://www.w3.org/2000/svg" xmlns:xlink="http://www.w3.org/1999/xlink" x="0px" y="0px"
	 viewBox="0 0 1000 1000" style="enable-background:new 0 0 1000 1000;" xml:space="preserve">
<style type="text/css">
	.st0{fill:#333333;}
</style>
<g id="BG">
</g>
<g id="Text">
	<g>
		<path class="st0" d="M163.3,584.3v4.2h36.6v-4.2H163.3z M163.3,610.2v28.6h4.2v-24.6h31.3v-3.9H163.3z"/>
		<path class="st0" d="M239.7,584.3h-4.6l-10.4,23.3l4.8-1.4l7.9-17.9l14.6,33.1h-33.5l-7.7,17.2h4.5l5.9-13.4h32.5l6,13.4h4.5
			L239.7,584.3z"/>
		<path class="st0" d="M632.2,584.3h-4.6l-10.4,23.3l4.8-1.4l7.9-17.9l14.6,33.1H611l-7.7,17.2h4.5l5.9-13.4h32.5l6,13.4h4.5
			L632.2,584.3z"/>
		<path class="st0" d="M755.4,584.3h-4.6l-10.4,23.3l4.8-1.4l7.9-17.9l14.6,33.1h-33.5l-7.7,17.2h4.5l5.9-13.4h32.5l6,13.4h4.5
			L755.4,584.3z"/>
		<path class="st0" d="M302.4,617.8c8.2,0,13.5-3.7,16-8.9c1.1-2.3,1.6-5,1.6-7.7c-0.1-8.5-6.1-16.9-17.9-16.9h-23.9v16.4l4.2-2.8
			v-9.8h19.7c9,0,13.4,6.6,13.3,13c0,3-0.7,5.7-2.2,7.8c-2.1,3.2-5.9,5.2-11.6,5.2h-23.4v24.5h4.2v-20.6h14.8l18.8,20.6h5.5
			L302.4,617.8z"/>
		<path class="st0" d="M367.1,610.8c5.4-1.7,8.9-6.1,8.9-11.7c0-10.3-8.7-14.8-17.9-14.8h-22.3v13.8l4.2-3v-7.2h18.1
			c6.7,0,13.9,3.3,13.9,11.2c0,7.8-6.8,9.8-13.4,9.8h-22.8v29.7h22.3c9.3,0,19.7-3,19.7-14.2C377.8,618.2,373.9,612.7,367.1,610.8z
			 M358.1,634.6H340v-21.8h18.6c7.3,0,15,3,15.1,11.5C373.7,633,364.9,634.6,358.1,634.6z"/>
		<path class="st0" d="M420.9,583.4c-18.3,0-27.4,13.4-27.4,28c0,14.4,9.2,28.2,27.4,28.2s27.3-13.7,27.4-28
			C448.4,596.9,439.3,583.4,420.9,583.4z M420.9,635.7c-15.5,0-23.2-12-23.3-24.2c-0.1-12.8,7.7-24.2,23.3-24.2
			c15.6,0,23.4,11.6,23.4,24.2C444.3,623.7,436.5,635.7,420.9,635.7z"/>
		<path class="st0" d="M511,610.9c-0.3-13.4-9.2-26.6-27.6-26.6h-18.4v54.3h18.4C502.5,638.7,511.3,624.7,511,610.9z M483.4,634.6
			h-14.2v-46.4h14.2c15.7,0,23.1,11.3,23.4,22.6C507.1,622.5,499.6,634.6,483.4,634.6z"/>
		<path class="st0" d="M564.9,584.3v3.6h20.8v30.2c0,11.2-7.4,17.5-17.4,17.5c-10,0-17.5-7.2-17.5-17.5h-3.9
			c0,12.7,9.1,21.4,21.5,21.4c12.3,0,21.5-8,21.5-21.4v-33.9H564.9z"/>
		<path class="st0" d="M708.9,584.3v25.9h-34.6v-25.9h-4.2v54.3h4.2V614h34.6v24.7h4.2v-54.3H708.9z"/>
		<path class="st0" d="M832.6,584.3v45l-36.6-45h-1.8v54.3h4.2v-44.9l36.7,44.9h1.6v-54.3H832.6z"/>
		<rect x="197.3" y="610.2" class="st0" width="1.5" height="4"/>
	</g>
</g>
<g id="Icon">
	<path class="st0" d="M482.1,463l-7.7,7.5l-2.7,2.6l0.1,0.1l-4.1,4.1v-76.9c0-8.6,3.4-16.7,9.5-22.8c6.1-6.1,14.2-9.5,22.9-9.5
		c8.6,0,16.7,3.4,22.8,9.5c1.1,1.1,2,2.2,2.9,3.4l-4.8,4.8c-0.9-1.2-1.8-2.4-2.9-3.5c-4.8-4.8-11.2-7.5-18.1-7.5
		c-6.8,0-13.3,2.7-18.1,7.5c-4.8,4.8-7.5,11.3-7.5,18.1v22.9h25l-7.3,6.7h-17.7v30.3l7.7-7.5v-15h13.1l23.9-22.1h-37v-15.2
		c0-4.8,1.9-9.3,5.2-12.6c3.4-3.4,7.9-5.2,12.7-5.2c4,0,7.9,1.3,11,3.8c0.1,0.1,0.2,0.2,0.3,0.2c0,0,0,0,0,0
		c0.2,0.2,0.4,0.4,0.7,0.6c1.8,1.5,5.4,5.2,7.8,10.6l15.8-15.8l-1.6-2.6c-1.6-2.6-3.6-5.1-5.8-7.3c-7.5-7.5-17.6-11.7-28.3-11.7
		c-10.7,0-20.7,4.2-28.3,11.7c-7.5,7.6-11.7,17.6-11.7,28.3v95.2l57.9-56.7l7.7-7.5l2.7-2.6l-0.1-0.1l4.1-4.1v76.9
		c0,8.6-3.4,16.7-9.5,22.8c-6.1,6.1-14.2,9.5-22.8,9.5c-8.6,0-16.7-3.4-22.9-9.5c-1.2-1.2-2.2-2.4-3.2-3.7l4.8-4.8
		c0.9,1.4,1.9,2.6,3.1,3.8c4.8,4.8,11.2,7.5,18.1,7.5c6.8,0,13.3-2.7,18.1-7.5c4.8-4.8,7.5-11.3,7.5-18.1v-58.1l-7.7,7.5v50.5
		c0,4.8-1.9,9.3-5.2,12.7c-3.4,3.4-7.9,5.2-12.7,5.2c-0.3,0-0.5,0-0.8,0c-0.2,0-0.4,0-0.5,0c-0.6,0-1.3-0.1-1.9-0.2
		c-0.2,0-0.3-0.1-0.5-0.1c-0.4-0.1-0.8-0.2-1.2-0.3c-0.2,0-0.3-0.1-0.5-0.2c-0.4-0.1-0.7-0.2-1.1-0.4c-0.2-0.1-0.4-0.1-0.5-0.2
		c-0.2-0.1-0.3-0.2-0.5-0.2c-0.2-0.1-0.3-0.2-0.5-0.2c-0.2-0.1-0.3-0.2-0.5-0.2c-0.3-0.2-0.6-0.4-1-0.6
		c-7.2-4.3-10.6-12.4-10.8-12.7h0l-15.6,15.6l1.6,2.6c1.7,2.8,3.7,5.4,6,7.7c7.5,7.5,17.6,11.7,28.3,11.7c10.7,0,20.7-4.2,28.3-11.7
		c7.5-7.6,11.7-17.6,11.7-28.3v-95.2L482.1,463z"/>
</g>
</svg>
