<svg xmlns="http://www.w3.org/2000/svg" viewBox="0 0 673.41 56.14"><defs><style>.cls-1{fill:#fff;}</style></defs><title>FarbodJahan-Text-White</title><g id="Text"><path class="cls-1" d="M163.29,472.8V477h36.59V472.8Zm0,25.86v28.58h4.19V502.6h31.29v-3.94Z" transform="translate(-163.29 -471.93)"/><path class="cls-1" d="M239.66,472.8h-4.59l-10.45,23.31,4.77-1.37,7.93-17.92,14.6,33.09h-33.5l-7.72,17.24h4.5l5.89-13.36h32.45l6,13.36H264Z" transform="translate(-163.29 -471.93)"/><path class="cls-1" d="M632.21,472.8h-4.59l-10.45,23.31,4.77-1.37,7.93-17.92,14.6,33.09H611l-7.72,17.24h4.5l5.89-13.36h32.45l6,13.36h4.51Z" transform="translate(-163.29 -471.93)"/><path class="cls-1" d="M755.41,472.8h-4.59l-10.45,23.31,4.77-1.37,7.93-17.92,14.6,33.09h-33.5l-7.72,17.24h4.5l5.89-13.36H769.3l6,13.36h4.51Z" transform="translate(-163.29 -471.93)"/><path class="cls-1" d="M302.36,506.33c8.22,0,13.53-3.71,16-8.92a17.82,17.82,0,0,0,1.62-7.69c-.07-8.47-6.06-16.93-17.85-16.93H278.21v16.4l4.19-2.76v-9.77h19.73c9,0,13.36,6.58,13.29,13a14,14,0,0,1-2.16,7.78c-2.08,3.23-5.89,5.19-11.61,5.19H278.21v24.54h4.19V506.58h14.82L316,527.14h5.5Z" transform="translate(-163.29 -471.93)"/><path class="cls-1" d="M367.07,499.28c5.43-1.73,8.86-6.06,8.86-11.67,0-10.32-8.72-14.81-17.86-14.81H335.78v13.79l4.19-3v-7.21h18.1c6.75,0,13.89,3.32,13.89,11.24,0,7.76-6.82,9.8-13.36,9.8H335.78v29.73h22.29c9.32,0,19.73-3,19.73-14.2A13.93,13.93,0,0,0,367.07,499.28Zm-9,23.84H340V501.36H358.6c7.3,0,15,3,15.08,11.49C373.68,521.49,364.9,523.12,358.07,523.12Z" transform="translate(-163.29 -471.93)"/><path class="cls-1" d="M420.91,471.93c-18.33,0-27.41,13.36-27.41,28,0,14.36,9.17,28.17,27.41,28.17s27.34-13.73,27.42-28C448.4,485.37,439.26,471.93,420.91,471.93Zm0,52.27c-15.46,0-23.22-12-23.29-24.23-.09-12.81,7.68-24.16,23.29-24.16s23.37,11.56,23.37,24.16C444.28,512.22,436.45,524.2,420.91,524.2Z" transform="translate(-163.29 -471.93)"/><path class="cls-1" d="M511,499.35c-.31-13.36-9.17-26.55-27.57-26.55H465.06v54.35h18.39C502.48,527.14,511.34,513.16,511,499.35Zm-27.57,23.77h-14.2V476.74h14.2c15.7,0,23.15,11.26,23.38,22.61C507.08,511,499.6,523.12,483.45,523.12Z" transform="translate(-163.29 -471.93)"/><path class="cls-1" d="M564.86,472.8v3.64h20.81v30.21c0,11.24-7.38,17.48-17.38,17.48s-17.55-7.16-17.55-17.48h-3.91c0,12.66,9.11,21.35,21.46,21.35s21.49-8,21.49-21.35V472.8Z" transform="translate(-163.29 -471.93)"/><path class="cls-1" d="M708.88,472.8v25.86H674.27V472.8h-4.21v54.35h4.21V502.46h34.61v24.68h4.19V472.8Z" transform="translate(-163.29 -471.93)"/><path class="cls-1" d="M832.59,472.8v45L796,472.8h-1.8v54.35h4.19v-44.9l36.67,44.9h1.63V472.8Z" transform="translate(-163.29 -471.93)"/><rect class="cls-1" x="34.02" y="26.72" width="1.46" height="3.95"/></g></svg>