<svg xmlns="http://www.w3.org/2000/svg" viewBox="0 0 673.41 279.17"><defs><style>.cls-1{fill:#fff;}</style></defs><title>FarbodJahan-White</title><g id="Text"><path class="cls-1" d="M163.29,584.31v4.19h36.59v-4.19Zm0,25.86v28.58h4.19V614.12h31.29v-3.94Z" transform="translate(-163.29 -360.41)"/><path class="cls-1" d="M239.66,584.31h-4.59l-10.45,23.31,4.77-1.37,7.93-17.92,14.6,33.09h-33.5l-7.72,17.24h4.5l5.89-13.36h32.45l6,13.36H264Z" transform="translate(-163.29 -360.41)"/><path class="cls-1" d="M632.21,584.31h-4.59l-10.45,23.31,4.77-1.37,7.93-17.92,14.6,33.09H611l-7.72,17.24h4.5l5.89-13.36h32.45l6,13.36h4.51Z" transform="translate(-163.29 -360.41)"/><path class="cls-1" d="M755.41,584.31h-4.59l-10.45,23.31,4.77-1.37,7.93-17.92,14.6,33.09h-33.5l-7.72,17.24h4.5l5.89-13.36H769.3l6,13.36h4.51Z" transform="translate(-163.29 -360.41)"/><path class="cls-1" d="M302.36,617.85c8.22,0,13.53-3.71,16-8.92a17.82,17.82,0,0,0,1.62-7.69c-.07-8.47-6.06-16.93-17.85-16.93H278.21v16.4L282.4,598v-9.77h19.73c9,0,13.36,6.58,13.29,13a14,14,0,0,1-2.16,7.78c-2.08,3.23-5.89,5.19-11.61,5.19H278.21v24.54h4.19V618.1h14.82L316,638.66h5.5Z" transform="translate(-163.29 -360.41)"/><path class="cls-1" d="M367.07,610.79c5.43-1.73,8.86-6.06,8.86-11.67,0-10.32-8.72-14.81-17.86-14.81H335.78v13.79l4.19-3v-7.21h18.1c6.75,0,13.89,3.32,13.89,11.24,0,7.76-6.82,9.8-13.36,9.8H335.78v29.73h22.29c9.32,0,19.73-3,19.73-14.2A13.93,13.93,0,0,0,367.07,610.79Zm-9,23.84H340V612.87H358.6c7.3,0,15,3,15.08,11.49C373.68,633,364.9,634.63,358.07,634.63Z" transform="translate(-163.29 -360.41)"/><path class="cls-1" d="M420.91,583.45c-18.33,0-27.41,13.36-27.41,28,0,14.36,9.17,28.17,27.41,28.17s27.34-13.73,27.42-28C448.4,596.89,439.26,583.45,420.91,583.45Zm0,52.27c-15.46,0-23.22-12-23.29-24.23-.09-12.81,7.68-24.16,23.29-24.16s23.37,11.56,23.37,24.16C444.28,623.74,436.45,635.71,420.91,635.71Z" transform="translate(-163.29 -360.41)"/><path class="cls-1" d="M511,610.87c-.31-13.36-9.17-26.55-27.57-26.55H465.06v54.35h18.39C502.48,638.66,511.34,624.68,511,610.87Zm-27.57,23.77h-14.2V588.26h14.2c15.7,0,23.15,11.26,23.38,22.61C507.08,622.52,499.6,634.63,483.45,634.63Z" transform="translate(-163.29 -360.41)"/><path class="cls-1" d="M564.86,584.31V588h20.81v30.21c0,11.24-7.38,17.48-17.38,17.48s-17.55-7.16-17.55-17.48h-3.91c0,12.66,9.11,21.35,21.46,21.35s21.49-8,21.49-21.35V584.31Z" transform="translate(-163.29 -360.41)"/><path class="cls-1" d="M708.88,584.31v25.86H674.27V584.31h-4.21v54.35h4.21V614h34.61v24.68h4.19V584.31Z" transform="translate(-163.29 -360.41)"/><path class="cls-1" d="M832.59,584.31v45l-36.57-45h-1.8v54.35h4.19v-44.9l36.67,44.9h1.63V584.31Z" transform="translate(-163.29 -360.41)"/><rect class="cls-1" x="34.02" y="249.76" width="1.46" height="3.95"/></g><g id="Icon"><path class="cls-1" d="M482.11,463l-7.69,7.54-2.68,2.62.09.09-4.14,4.06V400.4a32.31,32.31,0,0,1,55.16-22.84,33.7,33.7,0,0,1,2.95,3.39L521,385.77a26.88,26.88,0,0,0-2.9-3.45,25.58,25.58,0,0,0-43.66,18.09v22.89h25L492.15,430H474.42v30.25l7.69-7.54v-15h13.05l23.92-22.1h-37V400.4A17.88,17.88,0,0,1,511,386.29c.11.08.21.15.32.25s0,0,0,0l.67.58a32.46,32.46,0,0,1,7.84,10.63L535.63,382l-1.6-2.59a40.22,40.22,0,0,0-5.76-7.27A40,40,0,0,0,460,400.4v95.19l57.89-56.73,7.69-7.54,2.68-2.62-.09-.09,4.14-4.07v76.89a32.3,32.3,0,0,1-55.16,22.84,31.78,31.78,0,0,1-3.18-3.71l4.82-4.84a24.59,24.59,0,0,0,3.12,3.79,25.58,25.58,0,0,0,43.66-18.09V443.39l-7.69,7.54v50.52A17.87,17.87,0,0,1,500,519.33h-.75a4,4,0,0,1-.53,0,14.27,14.27,0,0,1-1.9-.23l-.5-.09-1.19-.29-.49-.15c-.38-.12-.74-.23-1.1-.39a3.3,3.3,0,0,1-.53-.21l-.5-.22a4,4,0,0,1-.5-.25,4.83,4.83,0,0,1-.49-.25c-.33-.18-.65-.35-1-.55-7.16-4.32-10.65-12.38-10.8-12.74h0l-15.58,15.59,1.56,2.57A40,40,0,0,0,540,501.44V406.26Z" transform="translate(-163.29 -360.41)"/></g></svg>