<svg id="Logo" xmlns="http://www.w3.org/2000/svg" viewBox="0 0 671.06 200.17"><defs><style>.cls-1{fill:#fff;}</style></defs><title>FarbodFont-White</title><polygon class="cls-1" points="0 130.94 11.52 130.94 11.52 101.13 27.56 101.13 27.56 89.68 0 89.68 0 130.94"/><rect class="cls-1" y="69.22" width="40.55" height="11.36"/><path class="cls-1" d="M359.55,491.86a16.65,16.65,0,0,0,1.56-7,16,16,0,0,0-15.77-15.77H322.45v42.37H334V500.62H349.5a9.44,9.44,0,0,1,9.18,9.36,9.61,9.61,0,0,1-9.27,9.51H307.7L293,499.22a16,16,0,0,0,9-14.3,16,16,0,0,0-15.77-15.77H261.9v11.27h24.33a4.5,4.5,0,1,1,0,9h-22.1V519.5h-9.88v.84l-.42-1.1-19.34-50.09H224l-23.74,61.7h12.4l6.4-16.64H231.5l-4.43-11.45h-3.5l2.25-5.88,3.47-9.1,10.22,26.43,6.33,16.64H275.4V500.69h4.92l21.95,30.17H349.5a18.88,18.88,0,0,0,7.86-1.65,20.21,20.21,0,0,0,6.68-4.5A20.67,20.67,0,0,0,370.2,510,20.29,20.29,0,0,0,364,495.32,18.91,18.91,0,0,0,359.55,491.86Zm-14.3-2.61H334V480.5h11.25a4.51,4.51,0,0,1,4.32,4.41A4.35,4.35,0,0,1,345.24,489.26Z" transform="translate(-164.47 -399.92)"/><path class="cls-1" d="M408.16,467.22a32.25,32.25,0,1,0,32.33,32.35A32.32,32.32,0,0,0,408.16,467.22Zm0,53a20.75,20.75,0,1,1,20.63-20.7A20.7,20.7,0,0,1,408.16,520.27Z" transform="translate(-164.47 -399.92)"/><path class="cls-1" d="M501.42,500c0-17-14.21-30.86-31.64-30.86H449.07v61.71h20.72C487.21,530.85,501.42,517,501.42,500Zm-31.64,19.49h-9.18v-39h9.18c11.09,0,20.1,8.76,20.1,19.49S480.88,519.49,469.79,519.49Z" transform="translate(-164.47 -399.92)"/><path class="cls-1" d="M561.66,480.85h15.25v48.88A12.38,12.38,0,0,1,564.78,542a12.06,12.06,0,0,1-7.62-2.86l-1.3-1.3-9.71,7,2,2.08a23.7,23.7,0,0,0,16.64,6.58,24.93,24.93,0,0,0,9.19-1.74,23.14,23.14,0,0,0,7.72-5.1,24,24,0,0,0,7-17V469.15h-27Z" transform="translate(-164.47 -399.92)"/><polygon class="cls-1" points="659.44 69.33 659.44 109.71 632.14 69.33 620.88 69.33 620.88 131.03 632.49 131.03 632.49 90.56 659.87 131.03 671.06 131.03 671.06 69.33 659.44 69.33"/><polygon class="cls-1" points="577.11 69.33 557.76 119.42 545.91 119.42 545.91 69.33 534.3 69.33 534.3 89.78 509.26 89.78 509.26 69.33 497.64 69.33 497.64 119.42 484.92 119.42 465.57 69.33 455.08 69.33 431.34 131.03 443.74 131.03 450.14 114.39 462.21 114.39 457.78 102.94 454.65 102.94 456.9 97.06 460.37 87.96 470.6 114.39 476.93 131.03 489.41 131.03 489.4 131.03 497.64 131.03 497.64 131.03 509.26 131.03 509.26 101.12 534.3 101.12 534.3 131.03 545.91 131.03 545.91 131.03 553.27 131.03 553.27 131.03 565.75 131.03 572.09 114.39 582.31 87.96 585.78 97.06 588.02 102.94 585.41 102.94 580.98 114.39 592.54 114.39 598.94 131.03 611.34 131.03 587.6 69.33 577.11 69.33"/><rect class="cls-1" x="411.9" y="498.82" width="224.07" height="2.36" transform="translate(-325.22 336.12) rotate(-62.68)"/></svg>