<svg id="Logo" xmlns="http://www.w3.org/2000/svg" viewBox="0 0 567.53 118.09"><defs><style>.cls-1{fill:#fff;}</style></defs><title>FarbodJahan-White</title><path class="cls-1" d="M268.56,534.8h-8.9a1.24,1.24,0,0,1-1-.44,1.36,1.36,0,0,1-.39-.92v-48a19.46,19.46,0,0,1,1.6-7.83,20,20,0,0,1,4.35-6.38,21,21,0,0,1,6.43-4.3,20,20,0,0,1,15.67,0A20.15,20.15,0,0,1,297,477.64a19.46,19.46,0,0,1,1.6,7.83v48a1.37,1.37,0,0,1-.39.92,1.24,1.24,0,0,1-1,.44h-8.9a1.14,1.14,0,0,1-.87-.44,1.36,1.36,0,0,1-.39-.92V511.11H269.81v22.34a1.37,1.37,0,0,1-.39.92A1.15,1.15,0,0,1,268.56,534.8Zm18.57-34.53V484.8a8.59,8.59,0,0,0-8.61-8.61,8.41,8.41,0,0,0-6.19,2.52,8.29,8.29,0,0,0-2.52,6.09v15.47Z" transform="translate(-216.24 -440.95)"/><path class="cls-1" d="M311.88,465.75h21.66a22.76,22.76,0,0,1,16.25,6.72,24.16,24.16,0,0,1,4.93,7.35,22.76,22.76,0,0,1-1.45,20.75,23.88,23.88,0,0,1-8.51,8.32L356,533.55a1,1,0,0,1,0,.87.78.78,0,0,1-.77.39h-9.29a2.08,2.08,0,0,1-1.16-.39,1.94,1.94,0,0,1-.77-.87l-9.87-21.76H322v21.66a1.37,1.37,0,0,1-.39.92,1.24,1.24,0,0,1-1,.44h-8.8a1.24,1.24,0,0,1-1-.44,1.36,1.36,0,0,1-.39-.92V467Q310.53,465.75,311.88,465.75Zm21.66,10.83H322V501h11.51A11,11,0,0,0,338,500a11.84,11.84,0,0,0,3.63-2.47,11.7,11.7,0,0,0,2.47-3.68,14.89,14.89,0,0,0,0-10.3A11.72,11.72,0,0,0,338,477.5,11,11,0,0,0,333.55,476.58Z" transform="translate(-216.24 -440.95)"/><path class="cls-1" d="M383.17,465.75a16.82,16.82,0,0,1,6.72,1.35,18,18,0,0,1,5.51,3.68A17,17,0,0,1,400.48,483a16.21,16.21,0,0,1-1.93,7.83,21.76,21.76,0,0,1,5.46,3.53,24.57,24.57,0,0,1,4.26,4.88,22.45,22.45,0,0,1,2.76,5.9,22.91,22.91,0,0,1,1,6.67,22.13,22.13,0,0,1-1.84,8.95A23.17,23.17,0,0,1,397.92,533,22.1,22.1,0,0,1,389,534.8H367.21a1.14,1.14,0,0,1-.87-.44,1.36,1.36,0,0,1-.39-.92V467a1.11,1.11,0,0,1,1.26-1.26Zm-5.71,23.41h5.71a5.6,5.6,0,0,0,4.11-1.69A6.08,6.08,0,0,0,389,483a6.31,6.31,0,0,0-1.69-4.74,5.68,5.68,0,0,0-4.11-1.64h-5.71ZM389,524a11.08,11.08,0,0,0,4.45-.92,11.46,11.46,0,0,0,6.14-6.14,12.9,12.9,0,0,0,.92-5.13,11.76,11.76,0,0,0-.92-4.79,11.9,11.9,0,0,0-2.47-3.63,11.73,11.73,0,0,0-3.68-2.47A11.1,11.1,0,0,0,389,500H377.46v24Z" transform="translate(-216.24 -440.95)"/><path class="cls-1" d="M438.78,465.26a23.78,23.78,0,0,1,9.43,1.84,22.48,22.48,0,0,1,7.4,5,23.08,23.08,0,0,1,4.84,7.5,24.86,24.86,0,0,1,0,18.28,23.08,23.08,0,0,1-4.84,7.5,22.47,22.47,0,0,1-7.4,5,25.11,25.11,0,0,1-18.86,0,22.44,22.44,0,0,1-7.4-5,23.06,23.06,0,0,1-4.84-7.5,24.87,24.87,0,0,1,0-18.28,23.06,23.06,0,0,1,4.84-7.5,22.45,22.45,0,0,1,7.4-5A23.77,23.77,0,0,1,438.78,465.26ZM457,534.8H420.6a1.2,1.2,0,0,1-1.35-1.35v-8.8a1.2,1.2,0,0,1,1.35-1.35H457a1.2,1.2,0,0,1,1.35,1.35v8.8A1.2,1.2,0,0,1,457,534.8Zm-18.18-33.17a12.06,12.06,0,0,0,5.17-1.06,11.33,11.33,0,0,0,3.82-2.85,12.72,12.72,0,0,0,2.37-4.11,14.4,14.4,0,0,0,.82-4.84,13.67,13.67,0,0,0-.87-4.84,13,13,0,0,0-2.47-4.11,11.88,11.88,0,0,0-3.87-2.85,12.19,12.19,0,0,0-10,0,11.86,11.86,0,0,0-3.87,2.85,13,13,0,0,0-2.47,4.11,13.86,13.86,0,0,0,0,9.67,12.37,12.37,0,0,0,2.47,4.06,12.81,12.81,0,0,0,3.87,2.85A11.16,11.16,0,0,0,438.78,501.63Z" transform="translate(-216.24 -440.95)"/><path class="cls-1" d="M483,465.75a33.63,33.63,0,0,1,13.44,2.71,34.62,34.62,0,0,1,18.38,18.38,34.72,34.72,0,0,1,0,26.89,34.62,34.62,0,0,1-18.38,18.38A33.61,33.61,0,0,1,483,534.8H472.82a1.24,1.24,0,0,1-1-.44,1.36,1.36,0,0,1-.39-.92V467.1a1.2,1.2,0,0,1,1.35-1.35ZM483,524a22.1,22.1,0,0,0,8.95-1.84,24.09,24.09,0,0,0,7.35-4.93,22.5,22.5,0,0,0,4.93-7.3,26.78,26.78,0,0,0,0-19.25,22.92,22.92,0,0,0-12.28-12.28,22.63,22.63,0,0,0-8.95-1.79Z" transform="translate(-216.24 -440.95)"/><path class="cls-1" d="M563.93,466.42a1.11,1.11,0,0,1,1.26-1.26h8.9a1.37,1.37,0,0,1,.92.39,1.15,1.15,0,0,1,.44.87v45.65a22.05,22.05,0,0,1-1.79,8.8,24,24,0,0,1-4.84,7.3,23,23,0,0,1-7.11,5,22,22,0,0,1-8.7,1.93h-.87q-.78,0-.77-1.35v-8.22q0-1.26,1-1.26h.87a11.57,11.57,0,0,0,7.64-3.63,11,11,0,0,0,3.09-7.88Z" transform="translate(-216.24 -440.95)"/><path class="cls-1" d="M597.1,534.8h-8.9a1.24,1.24,0,0,1-1-.44,1.36,1.36,0,0,1-.39-.92v-48a19.45,19.45,0,0,1,1.6-7.83,20,20,0,0,1,4.35-6.38,21.06,21.06,0,0,1,6.43-4.3,20,20,0,0,1,15.67,0,20.16,20.16,0,0,1,10.69,10.69,19.47,19.47,0,0,1,1.6,7.83v48a1.37,1.37,0,0,1-.39.92,1.24,1.24,0,0,1-1,.44h-8.9a1.14,1.14,0,0,1-.87-.44,1.36,1.36,0,0,1-.39-.92V511.11H598.36v22.34a1.37,1.37,0,0,1-.39.92A1.15,1.15,0,0,1,597.1,534.8Zm18.57-34.53V484.8a8.59,8.59,0,0,0-8.61-8.61,8.41,8.41,0,0,0-6.19,2.52,8.3,8.3,0,0,0-2.51,6.09v15.47Z" transform="translate(-216.24 -440.95)"/><path class="cls-1" d="M640.43,465.84h8.8q1.35,0,1.35,1.26v22.34h17.22V467.1c0-.84.45-1.26,1.35-1.26h8.9a1.11,1.11,0,0,1,1.26,1.26v66.45a1.11,1.11,0,0,1-1.26,1.26h-8.9c-.9,0-1.35-.42-1.35-1.26V500.28H650.59v33.27q0,1.26-1.35,1.26h-8.8q-1.35,0-1.35-1.26V467.1Q639.08,465.85,640.43,465.84Z" transform="translate(-216.24 -440.95)"/><path class="cls-1" d="M701.46,534.8h-8.9a1.24,1.24,0,0,1-1-.44,1.36,1.36,0,0,1-.39-.92v-48a19.45,19.45,0,0,1,1.6-7.83,20,20,0,0,1,4.35-6.38,21.06,21.06,0,0,1,6.43-4.3,20,20,0,0,1,15.67,0,20.16,20.16,0,0,1,10.69,10.69,19.47,19.47,0,0,1,1.6,7.83v48a1.37,1.37,0,0,1-.39.92,1.24,1.24,0,0,1-1,.44h-8.9a1.14,1.14,0,0,1-.87-.44,1.36,1.36,0,0,1-.39-.92V511.11H702.72v22.34a1.37,1.37,0,0,1-.39.92A1.15,1.15,0,0,1,701.46,534.8ZM720,500.28V484.8a8.59,8.59,0,0,0-8.61-8.61,8.41,8.41,0,0,0-6.19,2.52,8.3,8.3,0,0,0-2.51,6.09v15.47Z" transform="translate(-216.24 -440.95)"/><path class="cls-1" d="M782.42,465.84h-8.9a1.11,1.11,0,0,0-1.26,1.26v17.5l-16.35-17.89a3.47,3.47,0,0,0-2.23-.87h-8.9c-.9,0-1.34.41-1.34,1.26v66.44c0,.84.44,1.26,1.34,1.26h8.9a1.11,1.11,0,0,0,1.26-1.26v-52l17.32,18.86v57.41a1.11,1.11,0,0,0,1.26,1.26h8.9c.9,0,1.34-.41,1.34-1.26V467.1C783.76,466.26,783.32,465.84,782.42,465.84Z" transform="translate(-216.24 -440.95)"/><line class="cls-1" x1="382.13" y1="59.32" x2="382.13" y2="81.31"/><line class="cls-1" x1="399.44" y1="59.32" x2="399.44" y2="83.02"/><path class="cls-1" d="M243.17,489.15H227.31V478.32h16a1.28,1.28,0,0,1,1,.43,1.37,1.37,0,0,1,.39.91v8.23A1.27,1.27,0,0,1,243.17,489.15Z" transform="translate(-216.24 -440.95)"/><path class="cls-1" d="M518.13,442.21v8.22a1.11,1.11,0,0,1-1.26,1.26H227.74l0,24.5.06,13-.1,11.13v33.26a1.11,1.11,0,0,1-1.26,1.26h-8.9c-.9,0-1.34-.41-1.34-1.26V442.21c0-.84.44-1.26,1.34-1.26H517C517.82,441,518.2,441.37,518.13,442.21Z" transform="translate(-216.24 -440.95)"/><path class="cls-1" d="M783.76,548.32v9.47c0,.84-.44,1.26-1.34,1.26H551.12c-.84,0-1.23-.41-1.16-1.26v-8.22a1.11,1.11,0,0,1,1.26-1.26Z" transform="translate(-216.24 -440.95)"/><path class="cls-1" d="M227.84,524" transform="translate(-216.24 -440.95)"/></svg>