<svg xmlns="http://www.w3.org/2000/svg" viewBox="0 0 689.88 301.03"><defs><style>.cls-1{fill:#333;}</style></defs><title>FarbodJahan</title><g id="Icon"><polygon class="cls-1" points="377.35 32.41 377.35 47.81 424.58 95.05 344.94 174.69 324.02 153.76 324.02 169.17 344.94 190.09 439.98 95.05 377.35 32.41"/><polygon class="cls-1" points="344.94 15.4 344.95 15.41 351.93 8.42 351.93 6.99 344.94 0 249.9 95.05 298.6 143.75 298.6 128.35 265.3 95.05 344.94 15.4"/><polygon class="cls-1" points="332.2 98.72 332.2 83.31 316.75 98.76 316.75 82.72 341.09 58.38 341.09 42.97 305.86 78.2 305.86 151.01 316.75 161.91 316.75 114.17 332.2 98.72"/><polygon class="cls-1" points="370.08 25.14 370.08 125.83 344.94 150.97 332.2 138.23 332.2 122.84 344.94 135.56 359.19 121.31 359.19 14.25 370.08 25.14"/></g><g id="Text"><path class="cls-1" d="M155.06,594.87V615l10.27-10.27h28.88v-9.88Zm0,24.76v29.65h10.27V629.12h27.33v-9.5Z" transform="translate(-155.06 -349.49)"/><path class="cls-1" d="M229,616.65l4.55-10.43,18.84,43.05h11.22l-24.45-54.48H227.92l-24.45,54.48h11.14L219.27,639h19.49l-4.2-9.57H223.41L229,616.66Z" transform="translate(-155.06 -349.49)"/><path class="cls-1" d="M307.79,630c10.35-2.11,13.77-9.65,13.77-17.13,0-9.42-6.77-18-19.61-18-8.64,0-17.27-.08-25.92-.08v54.56h10.27V604.36H302c6.46,0,9.34,4.35,9.34,8.71s-2.8,8.72-9.34,8.72h-2.31l-9.26,9.26h5.81l15.88,18.22h12.22v-.7Z" transform="translate(-155.06 -349.49)"/><path class="cls-1" d="M373.49,621.1c5.07-2.26,7.08-6.31,7.08-10.5,0-11-8-15.8-18.76-15.8H336v30.89h25.84c4.21,0,10.21,2.57,10.21,7.48,0,5.13-6,6.54-10.21,6.54H346.09v-8.16L336,641.65v7.62h25.84c11.29,0,20.4-3.89,20.4-16C382.22,629.82,379.88,623,373.49,621.1Zm-11.68-4.43H346.09V604.13h15.72c6.54,0,8.57,4.2,8.57,6.69C370.38,613.94,368.27,616.66,361.81,616.66Z" transform="translate(-155.06 -349.49)"/><path class="cls-1" d="M423.7,593.69c-18.84,0-28,14.41-28,28.72s8.88,28.1,28,28.1,27.79-14.08,27.95-28.18S442.46,593.69,423.7,593.69Zm0,47.4c-12.84,0-17.66-9.57-17.89-18.53-.25-9.17,5.05-19.54,17.89-19.54s18,10.29,17.83,19.46C441.38,631.44,436.55,641.09,423.7,641.09Z" transform="translate(-155.06 -349.49)"/><path class="cls-1" d="M487.7,594.79H466.29v17.12h10.19v-7.39H487.7c11.84,0,16.81,8.47,17,17,.23,8.88-4.66,17.91-17,17.91H476.48V628.66l-10.19-10.19v30.81H487.7c19.07,0,27.48-13.93,27.25-27.71C514.72,608.1,506.38,594.79,487.7,594.79Z" transform="translate(-155.06 -349.49)"/><path class="cls-1" d="M570.07,594.79v3.66h20.85v30.27c0,11.29-7.39,17.52-17.43,17.52s-17.6-7.16-17.6-17.52H552c0,12.69,9.11,21.41,21.49,21.41s21.55-8,21.55-21.41V594.79Z" transform="translate(-155.06 -349.49)"/><path class="cls-1" d="M638.25,594.79h-4.59l-24.45,54.48h4.52l5.92-13.38h32.53l6,13.38h4.51Zm-17,37.2,14.64-33.15L650.55,632Z" transform="translate(-155.06 -349.49)"/><path class="cls-1" d="M715.63,594.79v25.92H680.91V594.79h-4.2v54.48h4.2V624.52h34.72v24.76h4.21V594.79Z" transform="translate(-155.06 -349.49)"/><path class="cls-1" d="M763.05,594.79h-4.6L734,649.27h4.51l5.92-13.38H777l6,13.38h4.52Zm-17,37.2,14.64-33.15L775.35,632Z" transform="translate(-155.06 -349.49)"/><path class="cls-1" d="M840.82,594.79v45.07l-36.67-45.07h-1.8v54.48h4.21v-45l36.73,45h1.64V594.79Z" transform="translate(-155.06 -349.49)"/><polyline class="cls-1" points="131.25 291.81 131.25 281.57 131.25 272.31"/></g></svg>